<?xml version="1.0" encoding="utf-8" standalone="no"?>
<!DOCTYPE svg PUBLIC "-//W3C//DTD SVG 1.1//EN"
  "http://www.w3.org/Graphics/SVG/1.1/DTD/svg11.dtd">
<svg xmlns:xlink="http://www.w3.org/1999/xlink" width="340.15748pt" height="226.771654pt" viewBox="0 0 340.15748 226.771654" xmlns="http://www.w3.org/2000/svg" version="1.1">
 <metadata>
  <rdf:RDF xmlns:dc="http://purl.org/dc/elements/1.1/" xmlns:cc="http://creativecommons.org/ns#" xmlns:rdf="http://www.w3.org/1999/02/22-rdf-syntax-ns#">
   <cc:Work>
    <dc:type rdf:resource="http://purl.org/dc/dcmitype/StillImage"/>
    <dc:date>2025-09-02T14:04:37.035565</dc:date>
    <dc:format>image/svg+xml</dc:format>
    <dc:creator>
     <cc:Agent>
      <dc:title>Matplotlib v3.10.0, https://matplotlib.org/</dc:title>
     </cc:Agent>
    </dc:creator>
   </cc:Work>
  </rdf:RDF>
 </metadata>
 <defs>
  <style type="text/css">*{stroke-linejoin: round; stroke-linecap: butt}</style>
 </defs>
 <g id="figure_1">
  <g id="patch_1">
   <path d="M 0 226.771654 
L 340.15748 226.771654 
L 340.15748 0 
L 0 0 
z
" style="fill: #ffffff"/>
  </g>
  <g id="axes_1">
   <g id="patch_2">
    <path d="M 71.342 181.931654 
L 327.19748 181.931654 
L 327.19748 29.76 
L 71.342 29.76 
z
" style="fill: #ffffff"/>
   </g>
   <g id="matplotlib.axis_1">
    <g id="xtick_1">
     <g id="line2d_1">
      <path d="M 82.971795 181.931654 
L 82.971795 29.76 
" clip-path="url(#p1e8e9d2c05)" style="fill: none; stroke: #b0b0b0; stroke-width: 0.8; stroke-linecap: square"/>
     </g>
     <g id="line2d_2">
      <defs>
       <path id="m609670f4a5" d="M 0 0 
L 0 3.5 
" style="stroke: #000000; stroke-width: 0.8"/>
      </defs>
      <g>
       <use xlink:href="#m609670f4a5" x="82.971795" y="181.931654" style="stroke: #000000; stroke-width: 0.8"/>
      </g>
     </g>
     <g id="text_1">
      <!-- 0 -->
      <g transform="translate(79.154295 198.049779) scale(0.12 -0.12)">
       <defs>
        <path id="DejaVuSans-30" d="M 2034 4250 
Q 1547 4250 1301 3770 
Q 1056 3291 1056 2328 
Q 1056 1369 1301 889 
Q 1547 409 2034 409 
Q 2525 409 2770 889 
Q 3016 1369 3016 2328 
Q 3016 3291 2770 3770 
Q 2525 4250 2034 4250 
z
M 2034 4750 
Q 2819 4750 3233 4129 
Q 3647 3509 3647 2328 
Q 3647 1150 3233 529 
Q 2819 -91 2034 -91 
Q 1250 -91 836 529 
Q 422 1150 422 2328 
Q 422 3509 836 4129 
Q 1250 4750 2034 4750 
z
" transform="scale(0.015625)"/>
       </defs>
       <use xlink:href="#DejaVuSans-30"/>
      </g>
     </g>
    </g>
    <g id="xtick_2">
     <g id="line2d_3">
      <path d="M 119.99058 181.931654 
L 119.99058 29.76 
" clip-path="url(#p1e8e9d2c05)" style="fill: none; stroke: #b0b0b0; stroke-width: 0.8; stroke-linecap: square"/>
     </g>
     <g id="line2d_4">
      <g>
       <use xlink:href="#m609670f4a5" x="119.99058" y="181.931654" style="stroke: #000000; stroke-width: 0.8"/>
      </g>
     </g>
     <g id="text_2">
      <!-- 1 -->
      <g transform="translate(116.17308 198.049779) scale(0.12 -0.12)">
       <defs>
        <path id="DejaVuSans-31" d="M 794 531 
L 1825 531 
L 1825 4091 
L 703 3866 
L 703 4441 
L 1819 4666 
L 2450 4666 
L 2450 531 
L 3481 531 
L 3481 0 
L 794 0 
L 794 531 
z
" transform="scale(0.015625)"/>
       </defs>
       <use xlink:href="#DejaVuSans-31"/>
      </g>
     </g>
    </g>
    <g id="xtick_3">
     <g id="line2d_5">
      <path d="M 157.009366 181.931654 
L 157.009366 29.76 
" clip-path="url(#p1e8e9d2c05)" style="fill: none; stroke: #b0b0b0; stroke-width: 0.8; stroke-linecap: square"/>
     </g>
     <g id="line2d_6">
      <g>
       <use xlink:href="#m609670f4a5" x="157.009366" y="181.931654" style="stroke: #000000; stroke-width: 0.8"/>
      </g>
     </g>
     <g id="text_3">
      <!-- 2 -->
      <g transform="translate(153.191866 198.049779) scale(0.12 -0.12)">
       <defs>
        <path id="DejaVuSans-32" d="M 1228 531 
L 3431 531 
L 3431 0 
L 469 0 
L 469 531 
Q 828 903 1448 1529 
Q 2069 2156 2228 2338 
Q 2531 2678 2651 2914 
Q 2772 3150 2772 3378 
Q 2772 3750 2511 3984 
Q 2250 4219 1831 4219 
Q 1534 4219 1204 4116 
Q 875 4013 500 3803 
L 500 4441 
Q 881 4594 1212 4672 
Q 1544 4750 1819 4750 
Q 2544 4750 2975 4387 
Q 3406 4025 3406 3419 
Q 3406 3131 3298 2873 
Q 3191 2616 2906 2266 
Q 2828 2175 2409 1742 
Q 1991 1309 1228 531 
z
" transform="scale(0.015625)"/>
       </defs>
       <use xlink:href="#DejaVuSans-32"/>
      </g>
     </g>
    </g>
    <g id="xtick_4">
     <g id="line2d_7">
      <path d="M 194.028152 181.931654 
L 194.028152 29.76 
" clip-path="url(#p1e8e9d2c05)" style="fill: none; stroke: #b0b0b0; stroke-width: 0.8; stroke-linecap: square"/>
     </g>
     <g id="line2d_8">
      <g>
       <use xlink:href="#m609670f4a5" x="194.028152" y="181.931654" style="stroke: #000000; stroke-width: 0.8"/>
      </g>
     </g>
     <g id="text_4">
      <!-- 3 -->
      <g transform="translate(190.210652 198.049779) scale(0.12 -0.12)">
       <defs>
        <path id="DejaVuSans-33" d="M 2597 2516 
Q 3050 2419 3304 2112 
Q 3559 1806 3559 1356 
Q 3559 666 3084 287 
Q 2609 -91 1734 -91 
Q 1441 -91 1130 -33 
Q 819 25 488 141 
L 488 750 
Q 750 597 1062 519 
Q 1375 441 1716 441 
Q 2309 441 2620 675 
Q 2931 909 2931 1356 
Q 2931 1769 2642 2001 
Q 2353 2234 1838 2234 
L 1294 2234 
L 1294 2753 
L 1863 2753 
Q 2328 2753 2575 2939 
Q 2822 3125 2822 3475 
Q 2822 3834 2567 4026 
Q 2313 4219 1838 4219 
Q 1578 4219 1281 4162 
Q 984 4106 628 3988 
L 628 4550 
Q 988 4650 1302 4700 
Q 1616 4750 1894 4750 
Q 2613 4750 3031 4423 
Q 3450 4097 3450 3541 
Q 3450 3153 3228 2886 
Q 3006 2619 2597 2516 
z
" transform="scale(0.015625)"/>
       </defs>
       <use xlink:href="#DejaVuSans-33"/>
      </g>
     </g>
    </g>
    <g id="xtick_5">
     <g id="line2d_9">
      <path d="M 231.046938 181.931654 
L 231.046938 29.76 
" clip-path="url(#p1e8e9d2c05)" style="fill: none; stroke: #b0b0b0; stroke-width: 0.8; stroke-linecap: square"/>
     </g>
     <g id="line2d_10">
      <g>
       <use xlink:href="#m609670f4a5" x="231.046938" y="181.931654" style="stroke: #000000; stroke-width: 0.8"/>
      </g>
     </g>
     <g id="text_5">
      <!-- 4 -->
      <g transform="translate(227.229438 198.049779) scale(0.12 -0.12)">
       <defs>
        <path id="DejaVuSans-34" d="M 2419 4116 
L 825 1625 
L 2419 1625 
L 2419 4116 
z
M 2253 4666 
L 3047 4666 
L 3047 1625 
L 3713 1625 
L 3713 1100 
L 3047 1100 
L 3047 0 
L 2419 0 
L 2419 1100 
L 313 1100 
L 313 1709 
L 2253 4666 
z
" transform="scale(0.015625)"/>
       </defs>
       <use xlink:href="#DejaVuSans-34"/>
      </g>
     </g>
    </g>
    <g id="xtick_6">
     <g id="line2d_11">
      <path d="M 268.065724 181.931654 
L 268.065724 29.76 
" clip-path="url(#p1e8e9d2c05)" style="fill: none; stroke: #b0b0b0; stroke-width: 0.8; stroke-linecap: square"/>
     </g>
     <g id="line2d_12">
      <g>
       <use xlink:href="#m609670f4a5" x="268.065724" y="181.931654" style="stroke: #000000; stroke-width: 0.8"/>
      </g>
     </g>
     <g id="text_6">
      <!-- 5 -->
      <g transform="translate(264.248224 198.049779) scale(0.12 -0.12)">
       <defs>
        <path id="DejaVuSans-35" d="M 691 4666 
L 3169 4666 
L 3169 4134 
L 1269 4134 
L 1269 2991 
Q 1406 3038 1543 3061 
Q 1681 3084 1819 3084 
Q 2600 3084 3056 2656 
Q 3513 2228 3513 1497 
Q 3513 744 3044 326 
Q 2575 -91 1722 -91 
Q 1428 -91 1123 -41 
Q 819 9 494 109 
L 494 744 
Q 775 591 1075 516 
Q 1375 441 1709 441 
Q 2250 441 2565 725 
Q 2881 1009 2881 1497 
Q 2881 1984 2565 2268 
Q 2250 2553 1709 2553 
Q 1456 2553 1204 2497 
Q 953 2441 691 2322 
L 691 4666 
z
" transform="scale(0.015625)"/>
       </defs>
       <use xlink:href="#DejaVuSans-35"/>
      </g>
     </g>
    </g>
    <g id="xtick_7">
     <g id="line2d_13">
      <path d="M 305.08451 181.931654 
L 305.08451 29.76 
" clip-path="url(#p1e8e9d2c05)" style="fill: none; stroke: #b0b0b0; stroke-width: 0.8; stroke-linecap: square"/>
     </g>
     <g id="line2d_14">
      <g>
       <use xlink:href="#m609670f4a5" x="305.08451" y="181.931654" style="stroke: #000000; stroke-width: 0.8"/>
      </g>
     </g>
     <g id="text_7">
      <!-- 6 -->
      <g transform="translate(301.26701 198.049779) scale(0.12 -0.12)">
       <defs>
        <path id="DejaVuSans-36" d="M 2113 2584 
Q 1688 2584 1439 2293 
Q 1191 2003 1191 1497 
Q 1191 994 1439 701 
Q 1688 409 2113 409 
Q 2538 409 2786 701 
Q 3034 994 3034 1497 
Q 3034 2003 2786 2293 
Q 2538 2584 2113 2584 
z
M 3366 4563 
L 3366 3988 
Q 3128 4100 2886 4159 
Q 2644 4219 2406 4219 
Q 1781 4219 1451 3797 
Q 1122 3375 1075 2522 
Q 1259 2794 1537 2939 
Q 1816 3084 2150 3084 
Q 2853 3084 3261 2657 
Q 3669 2231 3669 1497 
Q 3669 778 3244 343 
Q 2819 -91 2113 -91 
Q 1303 -91 875 529 
Q 447 1150 447 2328 
Q 447 3434 972 4092 
Q 1497 4750 2381 4750 
Q 2619 4750 2861 4703 
Q 3103 4656 3366 4563 
z
" transform="scale(0.015625)"/>
       </defs>
       <use xlink:href="#DejaVuSans-36"/>
      </g>
     </g>
    </g>
    <g id="text_8">
     <!-- angle [rad] -->
     <g transform="translate(171.612709 212.143841) scale(0.1 -0.1)">
      <defs>
       <path id="DejaVuSans-61" d="M 2194 1759 
Q 1497 1759 1228 1600 
Q 959 1441 959 1056 
Q 959 750 1161 570 
Q 1363 391 1709 391 
Q 2188 391 2477 730 
Q 2766 1069 2766 1631 
L 2766 1759 
L 2194 1759 
z
M 3341 1997 
L 3341 0 
L 2766 0 
L 2766 531 
Q 2569 213 2275 61 
Q 1981 -91 1556 -91 
Q 1019 -91 701 211 
Q 384 513 384 1019 
Q 384 1609 779 1909 
Q 1175 2209 1959 2209 
L 2766 2209 
L 2766 2266 
Q 2766 2663 2505 2880 
Q 2244 3097 1772 3097 
Q 1472 3097 1187 3025 
Q 903 2953 641 2809 
L 641 3341 
Q 956 3463 1253 3523 
Q 1550 3584 1831 3584 
Q 2591 3584 2966 3190 
Q 3341 2797 3341 1997 
z
" transform="scale(0.015625)"/>
       <path id="DejaVuSans-6e" d="M 3513 2113 
L 3513 0 
L 2938 0 
L 2938 2094 
Q 2938 2591 2744 2837 
Q 2550 3084 2163 3084 
Q 1697 3084 1428 2787 
Q 1159 2491 1159 1978 
L 1159 0 
L 581 0 
L 581 3500 
L 1159 3500 
L 1159 2956 
Q 1366 3272 1645 3428 
Q 1925 3584 2291 3584 
Q 2894 3584 3203 3211 
Q 3513 2838 3513 2113 
z
" transform="scale(0.015625)"/>
       <path id="DejaVuSans-67" d="M 2906 1791 
Q 2906 2416 2648 2759 
Q 2391 3103 1925 3103 
Q 1463 3103 1205 2759 
Q 947 2416 947 1791 
Q 947 1169 1205 825 
Q 1463 481 1925 481 
Q 2391 481 2648 825 
Q 2906 1169 2906 1791 
z
M 3481 434 
Q 3481 -459 3084 -895 
Q 2688 -1331 1869 -1331 
Q 1566 -1331 1297 -1286 
Q 1028 -1241 775 -1147 
L 775 -588 
Q 1028 -725 1275 -790 
Q 1522 -856 1778 -856 
Q 2344 -856 2625 -561 
Q 2906 -266 2906 331 
L 2906 616 
Q 2728 306 2450 153 
Q 2172 0 1784 0 
Q 1141 0 747 490 
Q 353 981 353 1791 
Q 353 2603 747 3093 
Q 1141 3584 1784 3584 
Q 2172 3584 2450 3431 
Q 2728 3278 2906 2969 
L 2906 3500 
L 3481 3500 
L 3481 434 
z
" transform="scale(0.015625)"/>
       <path id="DejaVuSans-6c" d="M 603 4863 
L 1178 4863 
L 1178 0 
L 603 0 
L 603 4863 
z
" transform="scale(0.015625)"/>
       <path id="DejaVuSans-65" d="M 3597 1894 
L 3597 1613 
L 953 1613 
Q 991 1019 1311 708 
Q 1631 397 2203 397 
Q 2534 397 2845 478 
Q 3156 559 3463 722 
L 3463 178 
Q 3153 47 2828 -22 
Q 2503 -91 2169 -91 
Q 1331 -91 842 396 
Q 353 884 353 1716 
Q 353 2575 817 3079 
Q 1281 3584 2069 3584 
Q 2775 3584 3186 3129 
Q 3597 2675 3597 1894 
z
M 3022 2063 
Q 3016 2534 2758 2815 
Q 2500 3097 2075 3097 
Q 1594 3097 1305 2825 
Q 1016 2553 972 2059 
L 3022 2063 
z
" transform="scale(0.015625)"/>
       <path id="DejaVuSans-20" transform="scale(0.015625)"/>
       <path id="DejaVuSans-5b" d="M 550 4863 
L 1875 4863 
L 1875 4416 
L 1125 4416 
L 1125 -397 
L 1875 -397 
L 1875 -844 
L 550 -844 
L 550 4863 
z
" transform="scale(0.015625)"/>
       <path id="DejaVuSans-72" d="M 2631 2963 
Q 2534 3019 2420 3045 
Q 2306 3072 2169 3072 
Q 1681 3072 1420 2755 
Q 1159 2438 1159 1844 
L 1159 0 
L 581 0 
L 581 3500 
L 1159 3500 
L 1159 2956 
Q 1341 3275 1631 3429 
Q 1922 3584 2338 3584 
Q 2397 3584 2469 3576 
Q 2541 3569 2628 3553 
L 2631 2963 
z
" transform="scale(0.015625)"/>
       <path id="DejaVuSans-64" d="M 2906 2969 
L 2906 4863 
L 3481 4863 
L 3481 0 
L 2906 0 
L 2906 525 
Q 2725 213 2448 61 
Q 2172 -91 1784 -91 
Q 1150 -91 751 415 
Q 353 922 353 1747 
Q 353 2572 751 3078 
Q 1150 3584 1784 3584 
Q 2172 3584 2448 3432 
Q 2725 3281 2906 2969 
z
M 947 1747 
Q 947 1113 1208 752 
Q 1469 391 1925 391 
Q 2381 391 2643 752 
Q 2906 1113 2906 1747 
Q 2906 2381 2643 2742 
Q 2381 3103 1925 3103 
Q 1469 3103 1208 2742 
Q 947 2381 947 1747 
z
" transform="scale(0.015625)"/>
       <path id="DejaVuSans-5d" d="M 1947 4863 
L 1947 -844 
L 622 -844 
L 622 -397 
L 1369 -397 
L 1369 4416 
L 622 4416 
L 622 4863 
L 1947 4863 
z
" transform="scale(0.015625)"/>
      </defs>
      <use xlink:href="#DejaVuSans-61"/>
      <use xlink:href="#DejaVuSans-6e" transform="translate(61.279297 0)"/>
      <use xlink:href="#DejaVuSans-67" transform="translate(124.658203 0)"/>
      <use xlink:href="#DejaVuSans-6c" transform="translate(188.134766 0)"/>
      <use xlink:href="#DejaVuSans-65" transform="translate(215.917969 0)"/>
      <use xlink:href="#DejaVuSans-20" transform="translate(277.441406 0)"/>
      <use xlink:href="#DejaVuSans-5b" transform="translate(309.228516 0)"/>
      <use xlink:href="#DejaVuSans-72" transform="translate(348.242188 0)"/>
      <use xlink:href="#DejaVuSans-61" transform="translate(389.355469 0)"/>
      <use xlink:href="#DejaVuSans-64" transform="translate(450.634766 0)"/>
      <use xlink:href="#DejaVuSans-5d" transform="translate(514.111328 0)"/>
     </g>
    </g>
   </g>
   <g id="matplotlib.axis_2">
    <g id="ytick_1">
     <g id="line2d_15">
      <path d="M 71.342 175.01476 
L 327.19748 175.01476 
" clip-path="url(#p1e8e9d2c05)" style="fill: none; stroke: #b0b0b0; stroke-width: 0.8; stroke-linecap: square"/>
     </g>
     <g id="line2d_16">
      <defs>
       <path id="m4e6d54f899" d="M 0 0 
L -3.5 0 
" style="stroke: #000000; stroke-width: 0.8"/>
      </defs>
      <g>
       <use xlink:href="#m4e6d54f899" x="71.342" y="175.01476" style="stroke: #000000; stroke-width: 0.8"/>
      </g>
     </g>
     <g id="text_9">
      <!-- −1.0 -->
      <g transform="translate(35.202625 179.573823) scale(0.12 -0.12)">
       <defs>
        <path id="DejaVuSans-2212" d="M 678 2272 
L 4684 2272 
L 4684 1741 
L 678 1741 
L 678 2272 
z
" transform="scale(0.015625)"/>
        <path id="DejaVuSans-2e" d="M 684 794 
L 1344 794 
L 1344 0 
L 684 0 
L 684 794 
z
" transform="scale(0.015625)"/>
       </defs>
       <use xlink:href="#DejaVuSans-2212"/>
       <use xlink:href="#DejaVuSans-31" transform="translate(83.789062 0)"/>
       <use xlink:href="#DejaVuSans-2e" transform="translate(147.412109 0)"/>
       <use xlink:href="#DejaVuSans-30" transform="translate(179.199219 0)"/>
      </g>
     </g>
    </g>
    <g id="ytick_2">
     <g id="line2d_17">
      <path d="M 71.342 140.430293 
L 327.19748 140.430293 
" clip-path="url(#p1e8e9d2c05)" style="fill: none; stroke: #b0b0b0; stroke-width: 0.8; stroke-linecap: square"/>
     </g>
     <g id="line2d_18">
      <g>
       <use xlink:href="#m4e6d54f899" x="71.342" y="140.430293" style="stroke: #000000; stroke-width: 0.8"/>
      </g>
     </g>
     <g id="text_10">
      <!-- −0.5 -->
      <g transform="translate(35.202625 144.989356) scale(0.12 -0.12)">
       <use xlink:href="#DejaVuSans-2212"/>
       <use xlink:href="#DejaVuSans-30" transform="translate(83.789062 0)"/>
       <use xlink:href="#DejaVuSans-2e" transform="translate(147.412109 0)"/>
       <use xlink:href="#DejaVuSans-35" transform="translate(179.199219 0)"/>
      </g>
     </g>
    </g>
    <g id="ytick_3">
     <g id="line2d_19">
      <path d="M 71.342 105.845827 
L 327.19748 105.845827 
" clip-path="url(#p1e8e9d2c05)" style="fill: none; stroke: #b0b0b0; stroke-width: 0.8; stroke-linecap: square"/>
     </g>
     <g id="line2d_20">
      <g>
       <use xlink:href="#m4e6d54f899" x="71.342" y="105.845827" style="stroke: #000000; stroke-width: 0.8"/>
      </g>
     </g>
     <g id="text_11">
      <!-- 0.0 -->
      <g transform="translate(45.25825 110.404889) scale(0.12 -0.12)">
       <use xlink:href="#DejaVuSans-30"/>
       <use xlink:href="#DejaVuSans-2e" transform="translate(63.623047 0)"/>
       <use xlink:href="#DejaVuSans-30" transform="translate(95.410156 0)"/>
      </g>
     </g>
    </g>
    <g id="ytick_4">
     <g id="line2d_21">
      <path d="M 71.342 71.26136 
L 327.19748 71.26136 
" clip-path="url(#p1e8e9d2c05)" style="fill: none; stroke: #b0b0b0; stroke-width: 0.8; stroke-linecap: square"/>
     </g>
     <g id="line2d_22">
      <g>
       <use xlink:href="#m4e6d54f899" x="71.342" y="71.26136" style="stroke: #000000; stroke-width: 0.8"/>
      </g>
     </g>
     <g id="text_12">
      <!-- 0.5 -->
      <g transform="translate(45.25825 75.820423) scale(0.12 -0.12)">
       <use xlink:href="#DejaVuSans-30"/>
       <use xlink:href="#DejaVuSans-2e" transform="translate(63.623047 0)"/>
       <use xlink:href="#DejaVuSans-35" transform="translate(95.410156 0)"/>
      </g>
     </g>
    </g>
    <g id="ytick_5">
     <g id="line2d_23">
      <path d="M 71.342 36.676893 
L 327.19748 36.676893 
" clip-path="url(#p1e8e9d2c05)" style="fill: none; stroke: #b0b0b0; stroke-width: 0.8; stroke-linecap: square"/>
     </g>
     <g id="line2d_24">
      <g>
       <use xlink:href="#m4e6d54f899" x="71.342" y="36.676893" style="stroke: #000000; stroke-width: 0.8"/>
      </g>
     </g>
     <g id="text_13">
      <!-- 1.0 -->
      <g transform="translate(45.25825 41.235956) scale(0.12 -0.12)">
       <use xlink:href="#DejaVuSans-31"/>
       <use xlink:href="#DejaVuSans-2e" transform="translate(63.623047 0)"/>
       <use xlink:href="#DejaVuSans-30" transform="translate(95.410156 0)"/>
      </g>
     </g>
    </g>
    <g id="text_14">
     <!-- some LaTeX label $\frac{\sigma}{2}$ [-] -->
     <g transform="translate(26.402625 173.105827) rotate(-90) scale(0.12 -0.12)">
      <defs>
       <path id="DejaVuSans-73" d="M 2834 3397 
L 2834 2853 
Q 2591 2978 2328 3040 
Q 2066 3103 1784 3103 
Q 1356 3103 1142 2972 
Q 928 2841 928 2578 
Q 928 2378 1081 2264 
Q 1234 2150 1697 2047 
L 1894 2003 
Q 2506 1872 2764 1633 
Q 3022 1394 3022 966 
Q 3022 478 2636 193 
Q 2250 -91 1575 -91 
Q 1294 -91 989 -36 
Q 684 19 347 128 
L 347 722 
Q 666 556 975 473 
Q 1284 391 1588 391 
Q 1994 391 2212 530 
Q 2431 669 2431 922 
Q 2431 1156 2273 1281 
Q 2116 1406 1581 1522 
L 1381 1569 
Q 847 1681 609 1914 
Q 372 2147 372 2553 
Q 372 3047 722 3315 
Q 1072 3584 1716 3584 
Q 2034 3584 2315 3537 
Q 2597 3491 2834 3397 
z
" transform="scale(0.015625)"/>
       <path id="DejaVuSans-6f" d="M 1959 3097 
Q 1497 3097 1228 2736 
Q 959 2375 959 1747 
Q 959 1119 1226 758 
Q 1494 397 1959 397 
Q 2419 397 2687 759 
Q 2956 1122 2956 1747 
Q 2956 2369 2687 2733 
Q 2419 3097 1959 3097 
z
M 1959 3584 
Q 2709 3584 3137 3096 
Q 3566 2609 3566 1747 
Q 3566 888 3137 398 
Q 2709 -91 1959 -91 
Q 1206 -91 779 398 
Q 353 888 353 1747 
Q 353 2609 779 3096 
Q 1206 3584 1959 3584 
z
" transform="scale(0.015625)"/>
       <path id="DejaVuSans-6d" d="M 3328 2828 
Q 3544 3216 3844 3400 
Q 4144 3584 4550 3584 
Q 5097 3584 5394 3201 
Q 5691 2819 5691 2113 
L 5691 0 
L 5113 0 
L 5113 2094 
Q 5113 2597 4934 2840 
Q 4756 3084 4391 3084 
Q 3944 3084 3684 2787 
Q 3425 2491 3425 1978 
L 3425 0 
L 2847 0 
L 2847 2094 
Q 2847 2600 2669 2842 
Q 2491 3084 2119 3084 
Q 1678 3084 1418 2786 
Q 1159 2488 1159 1978 
L 1159 0 
L 581 0 
L 581 3500 
L 1159 3500 
L 1159 2956 
Q 1356 3278 1631 3431 
Q 1906 3584 2284 3584 
Q 2666 3584 2933 3390 
Q 3200 3197 3328 2828 
z
" transform="scale(0.015625)"/>
       <path id="DejaVuSans-4c" d="M 628 4666 
L 1259 4666 
L 1259 531 
L 3531 531 
L 3531 0 
L 628 0 
L 628 4666 
z
" transform="scale(0.015625)"/>
       <path id="DejaVuSans-54" d="M -19 4666 
L 3928 4666 
L 3928 4134 
L 2272 4134 
L 2272 0 
L 1638 0 
L 1638 4134 
L -19 4134 
L -19 4666 
z
" transform="scale(0.015625)"/>
       <path id="DejaVuSans-58" d="M 403 4666 
L 1081 4666 
L 2241 2931 
L 3406 4666 
L 4084 4666 
L 2584 2425 
L 4184 0 
L 3506 0 
L 2194 1984 
L 872 0 
L 191 0 
L 1856 2491 
L 403 4666 
z
" transform="scale(0.015625)"/>
       <path id="DejaVuSans-62" d="M 3116 1747 
Q 3116 2381 2855 2742 
Q 2594 3103 2138 3103 
Q 1681 3103 1420 2742 
Q 1159 2381 1159 1747 
Q 1159 1113 1420 752 
Q 1681 391 2138 391 
Q 2594 391 2855 752 
Q 3116 1113 3116 1747 
z
M 1159 2969 
Q 1341 3281 1617 3432 
Q 1894 3584 2278 3584 
Q 2916 3584 3314 3078 
Q 3713 2572 3713 1747 
Q 3713 922 3314 415 
Q 2916 -91 2278 -91 
Q 1894 -91 1617 61 
Q 1341 213 1159 525 
L 1159 0 
L 581 0 
L 581 4863 
L 1159 4863 
L 1159 2969 
z
" transform="scale(0.015625)"/>
       <path id="DejaVuSans-Oblique-3c3" d="M 2219 3044 
Q 1744 3044 1422 2700 
Q 1081 2341 969 1747 
Q 844 1119 1044 756 
Q 1241 397 1706 397 
Q 2166 397 2503 759 
Q 2844 1122 2966 1747 
Q 3075 2319 2881 2700 
Q 2700 3044 2219 3044 
z
M 2309 3503 
L 4219 3500 
L 4106 2925 
L 3463 2925 
Q 3706 2438 3575 1747 
Q 3406 888 2884 400 
Q 2359 -91 1609 -91 
Q 856 -91 525 400 
Q 194 888 363 1747 
Q 528 2609 1050 3097 
Q 1484 3503 2309 3503 
z
" transform="scale(0.015625)"/>
       <path id="DejaVuSans-2d" d="M 313 2009 
L 1997 2009 
L 1997 1497 
L 313 1497 
L 313 2009 
z
" transform="scale(0.015625)"/>
      </defs>
      <use xlink:href="#DejaVuSans-73" transform="translate(0 0.89375)"/>
      <use xlink:href="#DejaVuSans-6f" transform="translate(52.099609 0.89375)"/>
      <use xlink:href="#DejaVuSans-6d" transform="translate(113.28125 0.89375)"/>
      <use xlink:href="#DejaVuSans-65" transform="translate(210.693359 0.89375)"/>
      <use xlink:href="#DejaVuSans-20" transform="translate(272.216797 0.89375)"/>
      <use xlink:href="#DejaVuSans-4c" transform="translate(304.003906 0.89375)"/>
      <use xlink:href="#DejaVuSans-61" transform="translate(359.716797 0.89375)"/>
      <use xlink:href="#DejaVuSans-54" transform="translate(420.996094 0.89375)"/>
      <use xlink:href="#DejaVuSans-65" transform="translate(482.080078 0.89375)"/>
      <use xlink:href="#DejaVuSans-58" transform="translate(543.603516 0.89375)"/>
      <use xlink:href="#DejaVuSans-20" transform="translate(612.109375 0.89375)"/>
      <use xlink:href="#DejaVuSans-6c" transform="translate(643.896484 0.89375)"/>
      <use xlink:href="#DejaVuSans-61" transform="translate(671.679688 0.89375)"/>
      <use xlink:href="#DejaVuSans-62" transform="translate(732.958984 0.89375)"/>
      <use xlink:href="#DejaVuSans-65" transform="translate(796.435547 0.89375)"/>
      <use xlink:href="#DejaVuSans-6c" transform="translate(857.958984 0.89375)"/>
      <use xlink:href="#DejaVuSans-20" transform="translate(885.742188 0.89375)"/>
      <use xlink:href="#DejaVuSans-Oblique-3c3" transform="translate(917.529297 45.685938) scale(0.7)"/>
      <use xlink:href="#DejaVuSans-32" transform="translate(917.529297 -38.5125) scale(0.7)"/>
      <use xlink:href="#DejaVuSans-20" transform="translate(974.56543 0.89375)"/>
      <use xlink:href="#DejaVuSans-5b" transform="translate(1006.352539 0.89375)"/>
      <use xlink:href="#DejaVuSans-2d" transform="translate(1045.366211 0.89375)"/>
      <use xlink:href="#DejaVuSans-5d" transform="translate(1081.450195 0.89375)"/>
      <path d="M 917.529297 19.690625 
L 917.529297 25.940625 
L 962.06543 25.940625 
L 962.06543 19.690625 
L 917.529297 19.690625 
z
"/>
     </g>
    </g>
   </g>
   <g id="PathCollection_1">
    <defs>
     <path id="mc8db7bb482" d="M 0 1.936492 
C 0.513564 1.936492 1.006162 1.732451 1.369306 1.369306 
C 1.732451 1.006162 1.936492 0.513564 1.936492 0 
C 1.936492 -0.513564 1.732451 -1.006162 1.369306 -1.369306 
C 1.006162 -1.732451 0.513564 -1.936492 0 -1.936492 
C -0.513564 -1.936492 -1.006162 -1.732451 -1.369306 -1.369306 
C -1.732451 -1.006162 -1.936492 -0.513564 -1.936492 0 
C -1.936492 0.513564 -1.732451 1.006162 -1.369306 1.369306 
C -1.006162 1.732451 -0.513564 1.936492 0 1.936492 
z
" style="stroke: #000000"/>
    </defs>
    <g clip-path="url(#p1e8e9d2c05)">
     <use xlink:href="#mc8db7bb482" x="82.971795" y="36.676893" style="fill: #006400; stroke: #000000"/>
     <use xlink:href="#mc8db7bb482" x="87.623712" y="37.222311" style="fill: #006400; stroke: #000000"/>
     <use xlink:href="#mc8db7bb482" x="92.27563" y="38.849963" style="fill: #006400; stroke: #000000"/>
     <use xlink:href="#mc8db7bb482" x="96.927548" y="41.534179" style="fill: #006400; stroke: #000000"/>
     <use xlink:href="#mc8db7bb482" x="101.579466" y="45.232628" style="fill: #006400; stroke: #000000"/>
     <use xlink:href="#mc8db7bb482" x="106.231384" y="49.886984" style="fill: #006400; stroke: #000000"/>
     <use xlink:href="#mc8db7bb482" x="110.883302" y="55.423844" style="fill: #006400; stroke: #000000"/>
     <use xlink:href="#mc8db7bb482" x="115.535219" y="61.755889" style="fill: #006400; stroke: #000000"/>
     <use xlink:href="#mc8db7bb482" x="120.187137" y="68.783259" style="fill: #006400; stroke: #000000"/>
     <use xlink:href="#mc8db7bb482" x="124.839055" y="76.395127" style="fill: #006400; stroke: #000000"/>
     <use xlink:href="#mc8db7bb482" x="129.490973" y="84.471451" style="fill: #006400; stroke: #000000"/>
     <use xlink:href="#mc8db7bb482" x="134.142891" y="92.884861" style="fill: #006400; stroke: #000000"/>
     <use xlink:href="#mc8db7bb482" x="138.794808" y="101.502674" style="fill: #006400; stroke: #000000"/>
     <use xlink:href="#mc8db7bb482" x="143.446726" y="110.18898" style="fill: #006400; stroke: #000000"/>
     <use xlink:href="#mc8db7bb482" x="148.098644" y="118.806792" style="fill: #006400; stroke: #000000"/>
     <use xlink:href="#mc8db7bb482" x="152.750562" y="127.220203" style="fill: #006400; stroke: #000000"/>
     <use xlink:href="#mc8db7bb482" x="157.40248" y="135.296526" style="fill: #006400; stroke: #000000"/>
     <use xlink:href="#mc8db7bb482" x="162.054398" y="142.908395" style="fill: #006400; stroke: #000000"/>
     <use xlink:href="#mc8db7bb482" x="166.706315" y="149.935764" style="fill: #006400; stroke: #000000"/>
     <use xlink:href="#mc8db7bb482" x="171.358233" y="156.267809" style="fill: #006400; stroke: #000000"/>
     <use xlink:href="#mc8db7bb482" x="176.010151" y="161.804669" style="fill: #006400; stroke: #000000"/>
     <use xlink:href="#mc8db7bb482" x="180.662069" y="166.459025" style="fill: #006400; stroke: #000000"/>
     <use xlink:href="#mc8db7bb482" x="185.313987" y="170.157475" style="fill: #006400; stroke: #000000"/>
     <use xlink:href="#mc8db7bb482" x="189.965905" y="172.841691" style="fill: #006400; stroke: #000000"/>
     <use xlink:href="#mc8db7bb482" x="194.617822" y="174.469343" style="fill: #006400; stroke: #000000"/>
     <use xlink:href="#mc8db7bb482" x="199.26974" y="175.01476" style="fill: #006400; stroke: #000000"/>
     <use xlink:href="#mc8db7bb482" x="203.921658" y="174.469343" style="fill: #006400; stroke: #000000"/>
     <use xlink:href="#mc8db7bb482" x="208.573576" y="172.841691" style="fill: #006400; stroke: #000000"/>
     <use xlink:href="#mc8db7bb482" x="213.225494" y="170.157475" style="fill: #006400; stroke: #000000"/>
     <use xlink:href="#mc8db7bb482" x="217.877411" y="166.459025" style="fill: #006400; stroke: #000000"/>
     <use xlink:href="#mc8db7bb482" x="222.529329" y="161.804669" style="fill: #006400; stroke: #000000"/>
     <use xlink:href="#mc8db7bb482" x="227.181247" y="156.267809" style="fill: #006400; stroke: #000000"/>
     <use xlink:href="#mc8db7bb482" x="231.833165" y="149.935764" style="fill: #006400; stroke: #000000"/>
     <use xlink:href="#mc8db7bb482" x="236.485083" y="142.908395" style="fill: #006400; stroke: #000000"/>
     <use xlink:href="#mc8db7bb482" x="241.137001" y="135.296526" style="fill: #006400; stroke: #000000"/>
     <use xlink:href="#mc8db7bb482" x="245.788918" y="127.220203" style="fill: #006400; stroke: #000000"/>
     <use xlink:href="#mc8db7bb482" x="250.440836" y="118.806792" style="fill: #006400; stroke: #000000"/>
     <use xlink:href="#mc8db7bb482" x="255.092754" y="110.18898" style="fill: #006400; stroke: #000000"/>
     <use xlink:href="#mc8db7bb482" x="259.744672" y="101.502674" style="fill: #006400; stroke: #000000"/>
     <use xlink:href="#mc8db7bb482" x="264.39659" y="92.884861" style="fill: #006400; stroke: #000000"/>
     <use xlink:href="#mc8db7bb482" x="269.048508" y="84.471451" style="fill: #006400; stroke: #000000"/>
     <use xlink:href="#mc8db7bb482" x="273.700425" y="76.395127" style="fill: #006400; stroke: #000000"/>
     <use xlink:href="#mc8db7bb482" x="278.352343" y="68.783259" style="fill: #006400; stroke: #000000"/>
     <use xlink:href="#mc8db7bb482" x="283.004261" y="61.755889" style="fill: #006400; stroke: #000000"/>
     <use xlink:href="#mc8db7bb482" x="287.656179" y="55.423844" style="fill: #006400; stroke: #000000"/>
     <use xlink:href="#mc8db7bb482" x="292.308097" y="49.886984" style="fill: #006400; stroke: #000000"/>
     <use xlink:href="#mc8db7bb482" x="296.960014" y="45.232628" style="fill: #006400; stroke: #000000"/>
     <use xlink:href="#mc8db7bb482" x="301.611932" y="41.534179" style="fill: #006400; stroke: #000000"/>
     <use xlink:href="#mc8db7bb482" x="306.26385" y="38.849963" style="fill: #006400; stroke: #000000"/>
     <use xlink:href="#mc8db7bb482" x="310.915768" y="37.222311" style="fill: #006400; stroke: #000000"/>
     <use xlink:href="#mc8db7bb482" x="315.567686" y="36.676893" style="fill: #006400; stroke: #000000"/>
    </g>
   </g>
   <g id="line2d_25">
    <path d="M 82.971795 105.845827 
L 87.623712 97.176661 
L 92.27563 88.644213 
L 96.927548 80.383044 
L 101.579466 72.523439 
L 106.231384 65.189348 
L 110.883302 58.496434 
L 115.535219 52.550248 
L 120.187137 47.444565 
L 124.839055 43.259905 
L 129.490973 40.062262 
L 134.142891 37.902065 
L 138.794808 36.813382 
L 143.446726 36.813382 
L 148.098644 37.902065 
L 152.750562 40.062262 
L 157.40248 43.259905 
L 162.054398 47.444565 
L 166.706315 52.550248 
L 171.358233 58.496434 
L 176.010151 65.189348 
L 180.662069 72.523439 
L 185.313987 80.383044 
L 189.965905 88.644213 
L 194.617822 97.176661 
L 199.26974 105.845827 
L 203.921658 114.514993 
L 208.573576 123.047441 
L 213.225494 131.308609 
L 217.877411 139.168215 
L 222.529329 146.502306 
L 227.181247 153.19522 
L 231.833165 159.141406 
L 236.485083 164.247089 
L 241.137001 168.431749 
L 245.788918 171.629392 
L 250.440836 173.789588 
L 255.092754 174.878271 
L 259.744672 174.878271 
L 264.39659 173.789588 
L 269.048508 171.629392 
L 273.700425 168.431749 
L 278.352343 164.247089 
L 283.004261 159.141406 
L 287.656179 153.19522 
L 292.308097 146.502306 
L 296.960014 139.168215 
L 301.611932 131.308609 
L 306.26385 123.047441 
L 310.915768 114.514993 
L 315.567686 105.845827 
" clip-path="url(#p1e8e9d2c05)" style="fill: none; stroke-dasharray: 5.55,2.4; stroke-dashoffset: 0; stroke: #00008b; stroke-width: 1.5"/>
   </g>
   <g id="patch_3">
    <path d="M 71.342 181.931654 
L 71.342 29.76 
" style="fill: none; stroke: #000000; stroke-width: 0.8; stroke-linejoin: miter; stroke-linecap: square"/>
   </g>
   <g id="patch_4">
    <path d="M 327.19748 181.931654 
L 327.19748 29.76 
" style="fill: none; stroke: #000000; stroke-width: 0.8; stroke-linejoin: miter; stroke-linecap: square"/>
   </g>
   <g id="patch_5">
    <path d="M 71.342 181.931654 
L 327.19748 181.931654 
" style="fill: none; stroke: #000000; stroke-width: 0.8; stroke-linejoin: miter; stroke-linecap: square"/>
   </g>
   <g id="patch_6">
    <path d="M 71.342 29.76 
L 327.19748 29.76 
" style="fill: none; stroke: #000000; stroke-width: 0.8; stroke-linejoin: miter; stroke-linecap: square"/>
   </g>
   <g id="text_15">
    <!-- Trigonometric functions -->
    <g transform="translate(114.394115 23.76) scale(0.144 -0.144)">
     <defs>
      <path id="DejaVuSans-69" d="M 603 3500 
L 1178 3500 
L 1178 0 
L 603 0 
L 603 3500 
z
M 603 4863 
L 1178 4863 
L 1178 4134 
L 603 4134 
L 603 4863 
z
" transform="scale(0.015625)"/>
      <path id="DejaVuSans-74" d="M 1172 4494 
L 1172 3500 
L 2356 3500 
L 2356 3053 
L 1172 3053 
L 1172 1153 
Q 1172 725 1289 603 
Q 1406 481 1766 481 
L 2356 481 
L 2356 0 
L 1766 0 
Q 1100 0 847 248 
Q 594 497 594 1153 
L 594 3053 
L 172 3053 
L 172 3500 
L 594 3500 
L 594 4494 
L 1172 4494 
z
" transform="scale(0.015625)"/>
      <path id="DejaVuSans-63" d="M 3122 3366 
L 3122 2828 
Q 2878 2963 2633 3030 
Q 2388 3097 2138 3097 
Q 1578 3097 1268 2742 
Q 959 2388 959 1747 
Q 959 1106 1268 751 
Q 1578 397 2138 397 
Q 2388 397 2633 464 
Q 2878 531 3122 666 
L 3122 134 
Q 2881 22 2623 -34 
Q 2366 -91 2075 -91 
Q 1284 -91 818 406 
Q 353 903 353 1747 
Q 353 2603 823 3093 
Q 1294 3584 2113 3584 
Q 2378 3584 2631 3529 
Q 2884 3475 3122 3366 
z
" transform="scale(0.015625)"/>
      <path id="DejaVuSans-66" d="M 2375 4863 
L 2375 4384 
L 1825 4384 
Q 1516 4384 1395 4259 
Q 1275 4134 1275 3809 
L 1275 3500 
L 2222 3500 
L 2222 3053 
L 1275 3053 
L 1275 0 
L 697 0 
L 697 3053 
L 147 3053 
L 147 3500 
L 697 3500 
L 697 3744 
Q 697 4328 969 4595 
Q 1241 4863 1831 4863 
L 2375 4863 
z
" transform="scale(0.015625)"/>
      <path id="DejaVuSans-75" d="M 544 1381 
L 544 3500 
L 1119 3500 
L 1119 1403 
Q 1119 906 1312 657 
Q 1506 409 1894 409 
Q 2359 409 2629 706 
Q 2900 1003 2900 1516 
L 2900 3500 
L 3475 3500 
L 3475 0 
L 2900 0 
L 2900 538 
Q 2691 219 2414 64 
Q 2138 -91 1772 -91 
Q 1169 -91 856 284 
Q 544 659 544 1381 
z
M 1991 3584 
L 1991 3584 
z
" transform="scale(0.015625)"/>
     </defs>
     <use xlink:href="#DejaVuSans-54"/>
     <use xlink:href="#DejaVuSans-72" transform="translate(46.333984 0)"/>
     <use xlink:href="#DejaVuSans-69" transform="translate(87.447266 0)"/>
     <use xlink:href="#DejaVuSans-67" transform="translate(115.230469 0)"/>
     <use xlink:href="#DejaVuSans-6f" transform="translate(178.707031 0)"/>
     <use xlink:href="#DejaVuSans-6e" transform="translate(239.888672 0)"/>
     <use xlink:href="#DejaVuSans-6f" transform="translate(303.267578 0)"/>
     <use xlink:href="#DejaVuSans-6d" transform="translate(364.449219 0)"/>
     <use xlink:href="#DejaVuSans-65" transform="translate(461.861328 0)"/>
     <use xlink:href="#DejaVuSans-74" transform="translate(523.384766 0)"/>
     <use xlink:href="#DejaVuSans-72" transform="translate(562.59375 0)"/>
     <use xlink:href="#DejaVuSans-69" transform="translate(603.707031 0)"/>
     <use xlink:href="#DejaVuSans-63" transform="translate(631.490234 0)"/>
     <use xlink:href="#DejaVuSans-20" transform="translate(686.470703 0)"/>
     <use xlink:href="#DejaVuSans-66" transform="translate(718.257812 0)"/>
     <use xlink:href="#DejaVuSans-75" transform="translate(753.462891 0)"/>
     <use xlink:href="#DejaVuSans-6e" transform="translate(816.841797 0)"/>
     <use xlink:href="#DejaVuSans-63" transform="translate(880.220703 0)"/>
     <use xlink:href="#DejaVuSans-74" transform="translate(935.201172 0)"/>
     <use xlink:href="#DejaVuSans-69" transform="translate(974.410156 0)"/>
     <use xlink:href="#DejaVuSans-6f" transform="translate(1002.193359 0)"/>
     <use xlink:href="#DejaVuSans-6e" transform="translate(1063.375 0)"/>
     <use xlink:href="#DejaVuSans-73" transform="translate(1126.753906 0)"/>
    </g>
   </g>
   <g id="legend_1">
    <g id="patch_7">
     <path d="M 79.742 175.931654 
L 154.800125 175.931654 
Q 157.200125 175.931654 157.200125 173.531654 
L 157.200125 139.504154 
Q 157.200125 137.104154 154.800125 137.104154 
L 79.742 137.104154 
Q 77.342 137.104154 77.342 139.504154 
L 77.342 173.531654 
Q 77.342 175.931654 79.742 175.931654 
z
" style="fill: #ffffff; opacity: 0.8; stroke: #cccccc; stroke-linejoin: miter"/>
    </g>
    <g id="line2d_26">
     <path d="M 82.142 146.822279 
L 94.142 146.822279 
L 106.142 146.822279 
" style="fill: none; stroke-dasharray: 5.55,2.4; stroke-dashoffset: 0; stroke: #00008b; stroke-width: 1.5"/>
    </g>
    <g id="text_16">
     <!-- sin(x) -->
     <g transform="translate(115.742 151.022279) scale(0.12 -0.12)">
      <defs>
       <path id="DejaVuSans-28" d="M 1984 4856 
Q 1566 4138 1362 3434 
Q 1159 2731 1159 2009 
Q 1159 1288 1364 580 
Q 1569 -128 1984 -844 
L 1484 -844 
Q 1016 -109 783 600 
Q 550 1309 550 2009 
Q 550 2706 781 3412 
Q 1013 4119 1484 4856 
L 1984 4856 
z
" transform="scale(0.015625)"/>
       <path id="DejaVuSans-78" d="M 3513 3500 
L 2247 1797 
L 3578 0 
L 2900 0 
L 1881 1375 
L 863 0 
L 184 0 
L 1544 1831 
L 300 3500 
L 978 3500 
L 1906 2253 
L 2834 3500 
L 3513 3500 
z
" transform="scale(0.015625)"/>
       <path id="DejaVuSans-29" d="M 513 4856 
L 1013 4856 
Q 1481 4119 1714 3412 
Q 1947 2706 1947 2009 
Q 1947 1309 1714 600 
Q 1481 -109 1013 -844 
L 513 -844 
Q 928 -128 1133 580 
Q 1338 1288 1338 2009 
Q 1338 2731 1133 3434 
Q 928 4138 513 4856 
z
" transform="scale(0.015625)"/>
      </defs>
      <use xlink:href="#DejaVuSans-73"/>
      <use xlink:href="#DejaVuSans-69" transform="translate(52.099609 0)"/>
      <use xlink:href="#DejaVuSans-6e" transform="translate(79.882812 0)"/>
      <use xlink:href="#DejaVuSans-28" transform="translate(143.261719 0)"/>
      <use xlink:href="#DejaVuSans-78" transform="translate(182.275391 0)"/>
      <use xlink:href="#DejaVuSans-29" transform="translate(241.455078 0)"/>
     </g>
    </g>
    <g id="PathCollection_2">
     <g>
      <use xlink:href="#mc8db7bb482" x="94.142" y="165.486029" style="fill: #006400; stroke: #000000"/>
     </g>
    </g>
    <g id="text_17">
     <!-- cos(x) -->
     <g transform="translate(115.742 168.636029) scale(0.12 -0.12)">
      <use xlink:href="#DejaVuSans-63"/>
      <use xlink:href="#DejaVuSans-6f" transform="translate(54.980469 0)"/>
      <use xlink:href="#DejaVuSans-73" transform="translate(116.162109 0)"/>
      <use xlink:href="#DejaVuSans-28" transform="translate(168.261719 0)"/>
      <use xlink:href="#DejaVuSans-78" transform="translate(207.275391 0)"/>
      <use xlink:href="#DejaVuSans-29" transform="translate(266.455078 0)"/>
     </g>
    </g>
   </g>
  </g>
 </g>
 <defs>
  <clipPath id="p1e8e9d2c05">
   <rect x="71.342" y="29.76" width="255.85548" height="152.171654"/>
  </clipPath>
 </defs>
</svg>
